<svg xmlns="http://www.w3.org/2000/svg" width="55" height="38.69" viewBox="0 0 55 38.69">
  <defs>
    <style>
      .cls-1 {
        fill: #fc5f45;
        fill-rule: evenodd;
      }
    </style>
  </defs>
  <path id="_" data-name="" class="cls-1" d="M541.266,2280.28H494v-30.95h47.266v30.95Zm-1.719-29.23H495.719v27.51h43.828v-27.51Zm-36.094-3.44h-1.719v-6.02H549v30.95h-6.016v-1.72h4.3v-27.51H503.453v4.3Zm33.516,14.62h-7.735v-8.6h7.735v8.6Zm-1.719-6.88h-4.3v5.16h4.3v-5.16Zm-13.75,20.63h1.719v-22.35H521.5v22.35Zm-23.2-18.91h20.625v-1.72H498.3v1.72Zm0,4.3h18.047v-1.72H498.3v1.72Zm0,4.29H517.2v-1.71H498.3v1.71Z" transform="translate(-494 -2241.59)"/>
</svg>
