<svg xmlns="http://www.w3.org/2000/svg" width="15" height="15.03" viewBox="0 0 15 15.03">
  <defs>
    <style>
      .cls-1 {
        fill: #b27cf5;
        fill-rule: evenodd;
      }
    </style>
  </defs>
  <path id="_" data-name="" class="cls-1" d="M1115,6115.48a7.494,7.494,0,1,1-2.19-5.33A7.282,7.282,0,0,1,1115,6115.48Zm-1.25,0a6.042,6.042,0,0,0-1.84-4.43,6.2,6.2,0,0,0-8.82,0,6.277,6.277,0,0,0,0,8.86A6.25,6.25,0,0,0,1113.75,6115.48Zm-6.25-3.76a3.593,3.593,0,0,1,2.66,1.1,3.765,3.765,0,0,1-2.66,6.43,3.769,3.769,0,0,1-2.65-6.43A3.571,3.571,0,0,1,1107.5,6111.72Z" transform="translate(-1100 -6107.97)"/>
</svg>
