<svg xmlns="http://www.w3.org/2000/svg" width="39.75" height="39.938" viewBox="0 0 39.75 39.938">
  <defs>
    <style>
      .cls-1 {
        fill: #feb960;
        fill-rule: evenodd;
      }
    </style>
  </defs>
  <path id="_" data-name="" class="cls-1" d="M1234.21,601.975a19.314,19.314,0,0,1-5.83,14.114,19.976,19.976,0,1,1,0-28.229A19.321,19.321,0,0,1,1234.21,601.975Zm-1.59,0a17.774,17.774,0,0,0-5.36-12.989,18.38,18.38,0,1,0,0,25.978A17.772,17.772,0,0,0,1232.62,601.975Zm-6.62-7.128a1.031,1.031,0,0,1-.1,1.689l-13.62,13.316a0.981,0.981,0,0,1-.74.282,1.146,1.146,0,0,1-.84-0.282l-5.32-5.345a1.191,1.191,0,0,1,1.68-1.688l4.48,4.5,12.78-12.473A1.048,1.048,0,0,1,1226,594.847Z" transform="translate(-1194.47 -582)"/>
</svg>
