<svg xmlns="http://www.w3.org/2000/svg" width="40" height="40" viewBox="0 0 40 40">
  <defs>
    <style>
      .cls-1 {
        fill: #38c695;
        fill-rule: evenodd;
      }
    </style>
  </defs>
  <path id="_" data-name="" class="cls-1" d="M708.052,602a20.006,20.006,0,1,1-5.859-14.14A19.27,19.27,0,0,1,708.052,602Zm-1.641,0a18.27,18.27,0,1,0-5.351,13.008A17.712,17.712,0,0,0,706.411,602Zm-20.9-2.5a16.555,16.555,0,0,0,3.9,1.758,11.485,11.485,0,0,1,3.945,2.149,4.892,4.892,0,0,1,1.875,3.75,4.986,4.986,0,0,1-1.562,3.71,7.1,7.1,0,0,1-4.3,1.836v2.657h-1.8v-2.891q-4.219-.156-6.328-2.5l1.328-1.485,0.625,0.547a7.53,7.53,0,0,0,2.148,1.212,7.942,7.942,0,0,0,3.008.586,5.211,5.211,0,0,0,3.242-.977,3.041,3.041,0,0,0,1.289-2.539,3.417,3.417,0,0,0-1.758-2.891,14.134,14.134,0,0,0-3.906-1.8,10.855,10.855,0,0,1-3.906-2.07A4.437,4.437,0,0,1,681.57,597a4.952,4.952,0,0,1,1.64-3.632,6.615,6.615,0,0,1,4.14-1.836V588.64h1.875v2.891a7.723,7.723,0,0,1,5.312,1.952l-1.172,1.719-0.624-.469a7.81,7.81,0,0,0-1.875-.937,7.074,7.074,0,0,0-2.5-.469,5.208,5.208,0,0,0-3.32,1.016,3.078,3.078,0,0,0-1.289,2.5A3.134,3.134,0,0,0,685.515,599.5Z" transform="translate(-668.063 -582)"/>
</svg>
