<svg xmlns="http://www.w3.org/2000/svg" width="39.844" height="40" viewBox="0 0 39.844 40">
  <defs>
    <style>
      .cls-1 {
        fill: #b27cf5;
        fill-rule: evenodd;
      }
    </style>
  </defs>
  <path id="_" data-name="" class="cls-1" d="M941.648,602a18.234,18.234,0,1,0,5.33-13.008A17.739,17.739,0,0,0,941.648,602Zm38.2,0a19.966,19.966,0,1,1-5.836-14.14A19.311,19.311,0,0,1,979.849,602Zm-7.625-7.656-1.323-1.329-10.97,11.173-7.624-7.812-1.323,1.327,8.947,8.829Zm-12.293-8.672A1.327,1.327,0,1,0,961.254,587,1.332,1.332,0,0,0,959.931,585.671Zm0,30A1.327,1.327,0,1,0,961.254,617,1.33,1.33,0,0,0,959.931,615.672Zm-14.937-15A1.327,1.327,0,1,0,946.316,602a1.287,1.287,0,0,0-.389-0.938A1.273,1.273,0,0,0,944.994,600.671Zm29.875,0A1.327,1.327,0,1,0,976.192,602a1.287,1.287,0,0,0-.389-0.938A1.274,1.274,0,0,0,974.869,600.671Z" transform="translate(-940 -582)"/>
</svg>
